<svg width="83" height="89" viewBox="0 0 83 89" fill="none" xmlns="http://www.w3.org/2000/svg">
<path d="M41.1276 48L41.1276 84L65 84C72.1797 84 78 78.1797 78 71L78 34.586C78 30.349 75.9352 26.3778 72.4669 23.9442L49.8603 8.08208C45.4898 5.01548 39.6887 4.93286 35.2326 7.87376L10.8392 23.9729C7.19362 26.3789 5 30.4549 5 34.8229L5 71C5 78.1797 10.8203 84 18 84L28.216 84" stroke="#184DA7" stroke-width="10"/>
<path d="M41.1276 48L41.1276 84L65 84C72.1797 84 78 78.1797 78 71L78 34.586C78 30.349 75.9352 26.3778 72.4669 23.9442L49.8603 8.08208C45.4898 5.01548 39.6887 4.93286 35.2326 7.87376L10.8392 23.9729C7.19362 26.3789 5 30.4549 5 34.8229L5 71C5 78.1797 10.8203 84 18 84L28.216 84" stroke="#184DA7" stroke-width="10"/>
<path d="M41 38L26.5662 63L55.4338 63L41 38ZM43.5 63.5L43.5 60.5L38.5 60.5L38.5 63.5L43.5 63.5Z" fill="#184DA7"/>
<path d="M41 38L26.5662 63L55.4338 63L41 38ZM43.5 63.5L43.5 60.5L38.5 60.5L38.5 63.5L43.5 63.5Z" fill="#184DA7"/>
</svg>
